<svg width="188" height="115" viewBox="0 0 188 115" fill="none" xmlns="http://www.w3.org/2000/svg">
<g clip-path="url(#clip0_198_8794)">
<g filter="url(#filter0_d_198_8794)">
<rect x="4" y="19" width="180" height="90" rx="15" fill="white"/>
<rect x="4" y="19" width="180" height="90" rx="15" stroke="#DADADA"/>
</g>
<rect x="14" y="72" width="160" height="27" rx="7" fill="#1565FF"/>
<path d="M35.315 50.668H37.74L34.9256 59.5722H32.7484L31.12 54.1762L29.4916 59.5722H27.3144L24.5 50.668H26.925L28.4295 56.1352L30.0403 50.668H32.1997L33.8105 56.153L35.315 50.668Z" fill="#1F2225"/>
<path d="M43.5998 50.4183C44.5675 50.4183 45.3669 50.7448 45.9982 51.3978C46.6296 52.0508 46.9452 52.9531 46.9452 54.1047V59.5719H44.6619V54.3896C44.6619 53.796 44.5026 53.3419 44.1839 53.0273C43.8653 52.7127 43.4405 52.5554 42.9095 52.5554C42.3195 52.5554 41.8475 52.7394 41.4935 53.1074C41.1395 53.4755 40.9624 54.0275 40.9624 54.7636V59.5719H38.6791V47.106H40.9624V51.6649C41.5171 50.8339 42.3962 50.4183 43.5998 50.4183Z" fill="#1F2225"/>
<path fill-rule="evenodd" clip-rule="evenodd" d="M52.8049 59.8214C54.1147 59.8214 55.224 59.3702 56.1326 58.4679C57.0412 57.5537 57.4955 56.4377 57.4955 55.1199C57.4955 53.8021 57.0412 52.689 56.1326 51.7808C55.224 50.8726 54.1147 50.4185 52.8049 50.4185C51.4951 50.4185 50.3888 50.8726 49.486 51.7808C48.5833 52.689 48.132 53.8021 48.132 55.1199C48.132 56.4377 48.5833 57.5508 49.486 58.459C50.3888 59.3672 51.4951 59.8214 52.8049 59.8214ZM52.8049 57.5775C52.1205 57.5775 51.5482 57.346 51.0879 56.883C50.6395 56.4199 50.4153 55.8322 50.4153 55.1199C50.4153 54.4076 50.6425 53.8199 51.0968 53.3569C51.5511 52.8938 52.1205 52.6623 52.8049 52.6623C53.4893 52.6623 54.0616 52.8938 54.5219 53.3569C54.9821 53.8199 55.2122 54.4076 55.2122 55.1199C55.2122 55.8322 54.9821 56.4199 54.5219 56.883C54.0616 57.346 53.4893 57.5775 52.8049 57.5775Z" fill="#1F2225"/>
<path d="M58.8064 59.572V46.5718H61.0898V59.572H58.8064Z" fill="#1F2225"/>
<path fill-rule="evenodd" clip-rule="evenodd" d="M67.3034 57.7378C65.9464 57.7378 65.1145 57.1798 64.8077 56.0638H71.4808C71.5398 55.7313 71.5693 55.4167 71.5693 55.1199C71.5693 53.7902 71.1474 52.6742 70.3037 51.7719C69.46 50.8696 68.3891 50.4185 67.091 50.4185C65.7222 50.4185 64.6012 50.8666 63.7279 51.763C62.8547 52.6594 62.4181 53.7783 62.4181 55.1199C62.4181 56.4734 62.8606 57.5953 63.7456 58.4857C64.6307 59.3761 65.8048 59.8214 67.268 59.8214C68.9673 59.8214 70.2535 59.1862 71.1268 57.9158L69.2859 56.8473C68.8375 57.441 68.1767 57.7378 67.3034 57.7378ZM69.2859 54.2829H64.7723C64.9021 53.713 65.1676 53.2708 65.5688 52.9562C65.97 52.6416 66.4774 52.4842 67.091 52.4842C67.6102 52.4842 68.0734 52.6327 68.4805 52.9295C68.8876 53.2263 69.1561 53.6774 69.2859 54.2829Z" fill="#1F2225"/>
<path d="M74.6147 53.1966C74.6147 53.434 74.771 53.627 75.0837 53.7754C75.3964 53.9238 75.777 54.0544 76.2254 54.1672C76.6738 54.2799 77.1223 54.4224 77.5707 54.5946C78.0191 54.7667 78.3996 55.0546 78.7124 55.4583C79.0251 55.8619 79.1814 56.3665 79.1814 56.972C79.1814 57.8862 78.8422 58.5896 78.1636 59.0823C77.4851 59.575 76.6384 59.8214 75.6236 59.8214C73.8064 59.8214 72.5673 59.115 71.9065 57.7021L73.889 56.5802C74.1486 57.3519 74.7268 57.7378 75.6236 57.7378C76.4378 57.7378 76.8449 57.4825 76.8449 56.972C76.8449 56.7345 76.6886 56.5416 76.3759 56.3932C76.0632 56.2448 75.6826 56.1112 75.2342 55.9925C74.7858 55.8738 74.3374 55.7254 73.889 55.5473C73.4405 55.3692 73.06 55.0873 72.7473 54.7014C72.4346 54.3156 72.2782 53.8318 72.2782 53.25C72.2782 52.3715 72.5998 51.6799 73.2429 51.1753C73.886 50.6707 74.6855 50.4185 75.6413 50.4185C76.3611 50.4185 77.016 50.5817 77.6061 50.9082C78.1961 51.2347 78.6622 51.7007 79.0044 52.3062L77.0574 53.3747C76.7741 52.7692 76.3021 52.4664 75.6413 52.4664C75.3463 52.4664 75.1014 52.5317 74.9067 52.6623C74.712 52.7929 74.6147 52.971 74.6147 53.1966Z" fill="#1F2225"/>
<path fill-rule="evenodd" clip-rule="evenodd" d="M89.2363 50.6678H86.9529V51.7185C86.2685 50.8518 85.3067 50.4185 84.0677 50.4185C82.8877 50.4185 81.8758 50.8726 81.0321 51.7808C80.1883 52.689 79.7665 53.8021 79.7665 55.1199C79.7665 56.4377 80.1883 57.5508 81.0321 58.459C81.8758 59.3672 82.8877 59.8214 84.0677 59.8214C85.3067 59.8214 86.2685 59.388 86.9529 58.5213V59.572H89.2363V50.6678ZM84.4925 57.6309C83.7845 57.6309 83.2004 57.3994 82.7402 56.9364C82.28 56.4615 82.0498 55.856 82.0498 55.1199C82.0498 54.3838 82.28 53.7813 82.7402 53.3123C83.2004 52.8434 83.7845 52.6089 84.4925 52.6089C85.2005 52.6089 85.7876 52.8434 86.2537 53.3123C86.7198 53.7813 86.9529 54.3838 86.9529 55.1199C86.9529 55.856 86.7198 56.4585 86.2537 56.9275C85.7876 57.3964 85.2005 57.6309 84.4925 57.6309Z" fill="#1F2225"/>
<path d="M91.0072 59.572V46.5718H93.2906V59.572H91.0072Z" fill="#1F2225"/>
<path fill-rule="evenodd" clip-rule="evenodd" d="M99.5044 57.7378C98.1473 57.7378 97.3154 57.1798 97.0086 56.0638H103.682C103.741 55.7313 103.77 55.4167 103.77 55.1199C103.77 53.7902 103.348 52.6742 102.505 51.7719C101.661 50.8696 100.59 50.4185 99.292 50.4185C97.9231 50.4185 96.8021 50.8666 95.9289 51.763C95.0556 52.6594 94.619 53.7783 94.619 55.1199C94.619 56.4734 95.0615 57.5953 95.9466 58.4857C96.8316 59.3761 98.0057 59.8214 99.469 59.8214C101.168 59.8214 102.454 59.1862 103.328 57.9158L101.487 56.8473C101.038 57.441 100.378 57.7378 99.5044 57.7378ZM101.487 54.2829H96.9732C97.103 53.713 97.3685 53.2708 97.7697 52.9562C98.1709 52.6416 98.6783 52.4842 99.292 52.4842C99.8112 52.4842 100.274 52.6327 100.681 52.9295C101.089 53.2263 101.357 53.6774 101.487 54.2829Z" fill="#1F2225"/>
<path d="M109.771 59.7858C108.438 59.7858 107.328 59.3376 106.443 58.4412C105.558 57.5449 105.116 56.4378 105.116 55.1199C105.116 53.8021 105.558 52.695 106.443 51.7986C107.328 50.9023 108.438 50.4541 109.771 50.4541C110.644 50.4541 111.429 50.6648 112.125 51.0863C112.821 51.5078 113.329 52.0747 113.647 52.787L112.692 53.3391C112.456 52.8048 112.075 52.3804 111.55 52.0658C111.025 51.7512 110.432 51.5938 109.771 51.5938C108.792 51.5938 107.966 51.9352 107.293 52.6178C106.62 53.3005 106.284 54.1345 106.284 55.1199C106.284 56.1053 106.62 56.9394 107.293 57.622C107.966 58.3047 108.792 58.646 109.771 58.646C110.432 58.646 111.022 58.4887 111.541 58.1741C112.06 57.8595 112.467 57.435 112.762 56.9008L113.736 57.4707C113.37 58.183 112.833 58.7469 112.125 59.1625C111.417 59.578 110.632 59.7858 109.771 59.7858Z" fill="#1F2225"/>
<path fill-rule="evenodd" clip-rule="evenodd" d="M122.295 51.8521C121.487 50.9201 120.428 50.4541 119.118 50.4541C117.761 50.4541 116.651 50.8993 115.79 51.7897C114.929 52.6802 114.498 53.7902 114.498 55.1199C114.498 56.4734 114.935 57.5894 115.808 58.4679C116.681 59.3465 117.814 59.7858 119.206 59.7858C120.068 59.7858 120.835 59.6017 121.507 59.2337C122.18 58.8657 122.711 58.367 123.1 57.7378L122.074 57.1323C121.826 57.5834 121.457 57.9485 120.967 58.2275C120.478 58.5065 119.897 58.646 119.224 58.646C118.28 58.646 117.486 58.3819 116.843 57.8535C116.2 57.3252 115.82 56.6099 115.702 55.7076H123.472C123.496 55.4702 123.507 55.2861 123.507 55.1556C123.507 53.8852 123.103 52.7841 122.295 51.8521ZM116.808 52.4219C117.427 51.8699 118.197 51.5938 119.118 51.5938C119.92 51.5938 120.622 51.855 121.224 52.3774C121.826 52.8998 122.186 53.63 122.304 54.5679H115.702C115.82 53.6893 116.188 52.974 116.808 52.4219Z" fill="#1F2225"/>
<path d="M129.208 50.4541C130.282 50.4541 131.128 50.7836 131.748 51.4425C132.368 52.1014 132.677 52.9888 132.677 54.1048V59.5721H131.509V54.1048C131.509 53.3094 131.3 52.692 130.881 52.2528C130.462 51.8135 129.869 51.5938 129.102 51.5938C128.252 51.5938 127.562 51.8639 127.031 52.4041C126.5 52.9443 126.234 53.7784 126.234 54.9062V59.5721H125.066V50.6678H126.234V52.0569C126.895 50.9884 127.886 50.4541 129.208 50.4541Z" fill="#1F2225"/>
<path d="M139.334 51.8077H136.785V57.2037C136.785 57.6905 136.879 58.0378 137.068 58.2455C137.257 58.4533 137.54 58.5601 137.918 58.5661C138.295 58.572 138.767 58.5631 139.334 58.5394V59.5723C138.095 59.7622 137.165 59.6732 136.546 59.3051C135.926 58.9371 135.616 58.2366 135.616 57.2037V51.8077H133.758V50.668H135.616V48.531L136.785 48.1748V50.668H139.334V51.8077Z" fill="#1F2225"/>
<path d="M142.149 52.146C142.692 51.0656 143.624 50.5254 144.946 50.5254V51.6651C144.143 51.6651 143.476 51.9026 142.945 52.3775C142.414 52.8524 142.149 53.6003 142.149 54.6214V59.5721H140.981V50.6679H142.149V52.146Z" fill="#1F2225"/>
<path fill-rule="evenodd" clip-rule="evenodd" d="M154.487 50.6678H153.319V52.413C152.505 51.1071 151.313 50.4541 149.743 50.4541C148.481 50.4541 147.404 50.9053 146.513 51.8075C145.622 52.7098 145.177 53.814 145.177 55.1199C145.177 56.4259 145.622 57.53 146.513 58.4323C147.404 59.3346 148.481 59.7858 149.743 59.7858C151.313 59.7858 152.505 59.1328 153.319 57.8268V59.5721H154.487V50.6678ZM149.832 58.646C148.852 58.646 148.026 58.3077 147.354 57.6309C146.681 56.9423 146.345 56.1053 146.345 55.1199C146.345 54.1345 146.681 53.3005 147.354 52.6178C148.026 51.9352 148.852 51.5938 149.832 51.5938C150.811 51.5938 151.637 51.9352 152.31 52.6178C152.982 53.3005 153.319 54.1345 153.319 55.1199C153.319 56.1053 152.982 56.9394 152.31 57.622C151.637 58.3047 150.811 58.646 149.832 58.646Z" fill="#1F2225"/>
<path d="M156.665 59.572V46.5718H157.833V59.572H156.665Z" fill="#1F2225"/>
<path d="M41.8425 39.5C47.1717 39.5 51.8352 42.9709 53.4476 47.9944L51.4491 48.6437C50.1148 44.4864 46.2539 41.6129 41.8425 41.6129C37.2954 41.6129 33.3449 44.665 32.128 49.0023L30.1069 48.4283C31.5776 43.1865 36.3492 39.5 41.8425 39.5Z" fill="#FFCF01"/>
<path d="M158.09 40.808V40.2578H161.373V40.808H160.051V44.5002H159.413V40.808H158.09Z" fill="#1F2225"/>
<path d="M161.974 40.2578H162.751L164.102 43.5556H164.152L165.502 40.2578H166.28V44.5002H165.67V41.4311H165.63L164.38 44.4936H163.873L162.624 41.4278H162.584V44.5002H161.974V40.2578Z" fill="#1F2225"/>
<path fill-rule="evenodd" clip-rule="evenodd" d="M96.0228 34.5912C94.7909 33.7978 93.2091 33.7978 91.9772 34.5912C89.9896 35.8714 87.3277 35.0065 86.4721 32.8025C85.9419 31.4366 84.6622 30.5068 83.1993 30.4246C80.8388 30.2921 79.1936 28.0276 79.7969 25.7417C80.1708 24.325 79.682 22.8205 78.5468 21.8942C76.715 20.3995 76.715 17.6005 78.5468 16.1058C79.682 15.1795 80.1708 13.675 79.7969 12.2583C79.1936 9.97236 80.8388 7.70795 83.1993 7.57537C84.6622 7.4932 85.9419 6.56338 86.4721 5.19748C87.3277 2.99349 89.9896 2.12856 91.9772 3.40876C93.2091 4.20216 94.7909 4.20216 96.0228 3.40876C98.0104 2.12856 100.672 2.99349 101.528 5.19748C102.058 6.56339 103.338 7.4932 104.801 7.57537C107.161 7.70795 108.806 9.97236 108.203 12.2583C107.829 13.675 108.318 15.1795 109.453 16.1058C111.285 17.6005 111.285 20.3995 109.453 21.8942C108.318 22.8205 107.829 24.325 108.203 25.7417C108.806 28.0276 107.161 30.2921 104.801 30.4246C103.338 30.5068 102.058 31.4366 101.528 32.8025C100.672 35.0065 98.0104 35.8714 96.0228 34.5912Z" fill="#1565FF"/>
<path d="M87 17.8415L92.0746 22.916L99.9906 15" stroke="white" stroke-width="2.5"/>
<path d="M47.458 87.284C48.0647 87.9 48.7973 88.208 49.656 88.208C50.5147 88.208 51.2427 87.9 51.84 87.284C52.4467 86.6587 52.75 85.9073 52.75 85.03C52.75 84.1527 52.4467 83.406 51.84 82.79C51.2427 82.1647 50.5147 81.852 49.656 81.852C48.7973 81.852 48.0647 82.1647 47.458 82.79C46.8607 83.406 46.562 84.1527 46.562 85.03C46.562 85.9073 46.8607 86.6587 47.458 87.284ZM53.282 88.67C52.2833 89.6687 51.0747 90.168 49.656 90.168C48.2373 90.168 47.024 89.6687 46.016 88.67C45.0173 87.662 44.518 86.4487 44.518 85.03C44.518 83.6113 45.0173 82.4027 46.016 81.404C47.024 80.396 48.2373 79.892 49.656 79.892C51.0747 79.892 52.2833 80.396 53.282 81.404C54.29 82.4027 54.794 83.6113 54.794 85.03C54.794 86.4487 54.29 87.662 53.282 88.67ZM67.8258 81.852C67.4991 81.852 67.2144 81.7353 66.9718 81.502C66.7291 81.2593 66.6078 80.97 66.6078 80.634C66.6078 80.298 66.7291 80.0133 66.9718 79.78C67.2144 79.5373 67.4991 79.416 67.8258 79.416C68.1711 79.416 68.4604 79.5373 68.6938 79.78C68.9364 80.0133 69.0578 80.298 69.0578 80.634C69.0578 80.97 68.9364 81.2593 68.6938 81.502C68.4604 81.7353 68.1711 81.852 67.8258 81.852ZM66.8738 90V83H68.7918V90H66.8738ZM56.5838 90V84.68H55.1698V83H56.5838V81.95C56.5838 81.1287 56.8311 80.5033 57.3258 80.074C57.8298 79.6353 58.4738 79.416 59.2578 79.416C59.7338 79.416 60.1398 79.4673 60.4758 79.57V81.264C60.3918 81.1893 60.1304 81.152 59.6918 81.152C59.2718 81.152 58.9684 81.2453 58.7818 81.432C58.5951 81.6093 58.5018 81.908 58.5018 82.328V83H60.0418V84.68H58.5018V90H56.5838ZM61.8478 90V84.68H60.7278V83H61.8478V81.95C61.8478 81.1287 62.0951 80.5033 62.5898 80.074C63.0938 79.6353 63.7378 79.416 64.5218 79.416C64.9978 79.416 65.4038 79.4673 65.7398 79.57V81.264C65.5718 81.1893 65.3058 81.152 64.9418 81.152C64.5218 81.152 64.2184 81.2453 64.0318 81.432C63.8544 81.6093 63.7658 81.908 63.7658 82.328V83H65.7398V84.68H63.7658V90H61.8478ZM73.5078 90.154C72.4625 90.154 71.5805 89.8087 70.8618 89.118C70.1525 88.418 69.7978 87.5453 69.7978 86.5C69.7978 85.4547 70.1525 84.5867 70.8618 83.896C71.5805 83.196 72.4625 82.846 73.5078 82.846C74.2265 82.846 74.8798 83.0327 75.4678 83.406C76.0652 83.77 76.5178 84.2553 76.8258 84.862L75.1598 85.758C75.0105 85.422 74.7912 85.1513 74.5018 84.946C74.2218 84.7407 73.8905 84.638 73.5078 84.638C73.0038 84.638 72.5792 84.8153 72.2338 85.17C71.8978 85.5247 71.7298 85.968 71.7298 86.5C71.7298 87.032 71.8978 87.4753 72.2338 87.83C72.5792 88.1847 73.0038 88.362 73.5078 88.362C73.8905 88.362 74.2218 88.2593 74.5018 88.054C74.7912 87.8487 75.0105 87.578 75.1598 87.242L76.8258 88.138C76.5178 88.7447 76.0652 89.2347 75.4678 89.608C74.8798 89.972 74.2265 90.154 73.5078 90.154ZM78.6156 81.852C78.2889 81.852 78.0042 81.7353 77.7616 81.502C77.5189 81.2593 77.3976 80.97 77.3976 80.634C77.3976 80.298 77.5189 80.0133 77.7616 79.78C78.0042 79.5373 78.2889 79.416 78.6156 79.416C78.9609 79.416 79.2502 79.5373 79.4836 79.78C79.7262 80.0133 79.8476 80.298 79.8476 80.634C79.8476 80.97 79.7262 81.2593 79.4836 81.502C79.2502 81.7353 78.9609 81.852 78.6156 81.852ZM77.6636 90V83H79.5816V90H77.6636ZM83.8765 90.154C82.9525 90.154 82.1731 89.7947 81.5385 89.076C80.9038 88.3573 80.5865 87.4987 80.5865 86.5C80.5865 85.5013 80.9038 84.6427 81.5385 83.924C82.1731 83.2053 82.9525 82.846 83.8765 82.846C84.3245 82.846 84.7258 82.9393 85.0805 83.126C85.4351 83.3127 85.7058 83.532 85.8925 83.784V83H87.8105V90H85.8925V89.216C85.7058 89.468 85.4351 89.6873 85.0805 89.874C84.7258 90.0607 84.3245 90.154 83.8765 90.154ZM82.9945 87.872C83.3211 88.2267 83.7505 88.404 84.2825 88.404C84.8145 88.404 85.2391 88.2267 85.5565 87.872C85.8831 87.5173 86.0465 87.06 86.0465 86.5C86.0465 85.94 85.8831 85.4827 85.5565 85.128C85.2391 84.7733 84.8145 84.596 84.2825 84.596C83.7505 84.596 83.3211 84.7733 82.9945 85.128C82.6771 85.4827 82.5185 85.94 82.5185 86.5C82.5185 87.06 82.6771 87.5173 82.9945 87.872ZM89.2862 90V79.5H91.2042V90H89.2862ZM97.8057 90.154C96.4804 90.154 95.5191 89.706 94.9217 88.81L96.2377 87.69C96.5737 88.2313 97.0964 88.502 97.8057 88.502C98.0204 88.502 98.2024 88.46 98.3517 88.376C98.5011 88.292 98.5757 88.166 98.5757 87.998C98.5757 87.8487 98.5104 87.7273 98.3797 87.634C98.2584 87.5313 98.0111 87.4287 97.6377 87.326L97.1197 87.2C96.4757 87.032 95.9857 86.752 95.6497 86.36C95.3231 85.968 95.1691 85.5013 95.1877 84.96C95.2064 84.3253 95.4584 83.8167 95.9437 83.434C96.4384 83.042 97.0637 82.846 97.8197 82.846C98.8931 82.846 99.7004 83.238 100.242 84.022L98.9817 85.044C98.6551 84.6333 98.2584 84.428 97.7917 84.428C97.6051 84.428 97.4417 84.47 97.3017 84.554C97.1617 84.638 97.0917 84.7547 97.0917 84.904C97.0917 85.184 97.3204 85.3847 97.7777 85.506L98.4357 85.702C99.7891 86.066 100.466 86.7893 100.466 87.872C100.466 88.5347 100.214 89.0807 99.7097 89.51C99.2057 89.9393 98.5711 90.154 97.8057 90.154ZM104.039 90.154C103.208 90.154 102.559 89.874 102.093 89.314C101.635 88.754 101.407 88.0027 101.407 87.06V83H103.325V86.738C103.325 87.8487 103.721 88.404 104.515 88.404C104.963 88.404 105.313 88.236 105.565 87.9C105.826 87.564 105.957 87.0693 105.957 86.416V83H107.875V90H105.957V89.202C105.527 89.8367 104.888 90.154 104.039 90.154ZM111.25 92.926H109.332V83H111.25V83.784C111.428 83.532 111.698 83.3127 112.062 83.126C112.426 82.9393 112.832 82.846 113.28 82.846C114.204 82.846 114.984 83.2053 115.618 83.924C116.253 84.6427 116.57 85.5013 116.57 86.5C116.57 87.4987 116.253 88.3573 115.618 89.076C114.984 89.7947 114.204 90.154 113.28 90.154C112.832 90.154 112.426 90.0607 112.062 89.874C111.698 89.6873 111.428 89.468 111.25 89.216V92.926ZM111.572 87.872C111.899 88.2267 112.328 88.404 112.86 88.404C113.392 88.404 113.817 88.2267 114.134 87.872C114.461 87.5173 114.624 87.06 114.624 86.5C114.624 85.94 114.461 85.4827 114.134 85.128C113.817 84.7733 113.392 84.596 112.86 84.596C112.328 84.596 111.899 84.7733 111.572 85.128C111.255 85.4827 111.096 85.94 111.096 86.5C111.096 87.06 111.255 87.5173 111.572 87.872ZM119.502 92.926H117.584V83H119.502V83.784C119.679 83.532 119.95 83.3127 120.314 83.126C120.678 82.9393 121.084 82.846 121.532 82.846C122.456 82.846 123.235 83.2053 123.87 83.924C124.505 84.6427 124.822 85.5013 124.822 86.5C124.822 87.4987 124.505 88.3573 123.87 89.076C123.235 89.7947 122.456 90.154 121.532 90.154C121.084 90.154 120.678 90.0607 120.314 89.874C119.95 89.6873 119.679 89.468 119.502 89.216V92.926ZM119.824 87.872C120.151 88.2267 120.58 88.404 121.112 88.404C121.644 88.404 122.069 88.2267 122.386 87.872C122.713 87.5173 122.876 87.06 122.876 86.5C122.876 85.94 122.713 85.4827 122.386 85.128C122.069 84.7733 121.644 84.596 121.112 84.596C120.58 84.596 120.151 84.7733 119.824 85.128C119.507 85.4827 119.348 85.94 119.348 86.5C119.348 87.06 119.507 87.5173 119.824 87.872ZM125.836 90V79.5H127.754V90H125.836ZM130.159 81.852C129.832 81.852 129.547 81.7353 129.305 81.502C129.062 81.2593 128.941 80.97 128.941 80.634C128.941 80.298 129.062 80.0133 129.305 79.78C129.547 79.5373 129.832 79.416 130.159 79.416C130.504 79.416 130.793 79.5373 131.027 79.78C131.269 80.0133 131.391 80.298 131.391 80.634C131.391 80.97 131.269 81.2593 131.027 81.502C130.793 81.7353 130.504 81.852 130.159 81.852ZM129.207 90V83H131.125V90H129.207ZM135.839 90.154C134.775 90.154 133.889 89.818 133.179 89.146C132.479 88.474 132.129 87.592 132.129 86.5C132.129 85.4547 132.479 84.5867 133.179 83.896C133.879 83.196 134.757 82.846 135.811 82.846C136.782 82.846 137.599 83.1493 138.261 83.756C138.924 84.3533 139.255 85.198 139.255 86.29C139.255 86.598 139.246 86.8173 139.227 86.948H133.991C134.047 87.4053 134.248 87.7647 134.593 88.026C134.948 88.278 135.368 88.404 135.853 88.404C136.675 88.404 137.277 88.11 137.659 87.522L139.087 88.586C138.369 89.6313 137.286 90.154 135.839 90.154ZM134.061 85.646H137.337C137.253 85.2447 137.062 84.9413 136.763 84.736C136.474 84.5307 136.138 84.428 135.755 84.428C135.363 84.428 135.004 84.5307 134.677 84.736C134.351 84.9413 134.145 85.2447 134.061 85.646ZM140.282 90V83H142.2V84.12C142.322 83.7747 142.541 83.49 142.858 83.266C143.185 83.0327 143.544 82.916 143.936 82.916C144.179 82.916 144.394 82.944 144.58 83V84.946C144.272 84.8433 143.983 84.792 143.712 84.792C143.255 84.792 142.886 84.96 142.606 85.296C142.336 85.6227 142.2 86.0753 142.2 86.654V90H140.282Z" fill="white"/>
</g>
<defs>
<filter id="filter0_d_198_8794" x="-0.5" y="16.5" width="189" height="99" filterUnits="userSpaceOnUse" color-interpolation-filters="sRGB">
<feFlood flood-opacity="0" result="BackgroundImageFix"/>
<feColorMatrix in="SourceAlpha" type="matrix" values="0 0 0 0 0 0 0 0 0 0 0 0 0 0 0 0 0 0 127 0" result="hardAlpha"/>
<feOffset dy="2"/>
<feGaussianBlur stdDeviation="2"/>
<feColorMatrix type="matrix" values="0 0 0 0 0 0 0 0 0 0 0 0 0 0 0 0 0 0 0.1 0"/>
<feBlend mode="normal" in2="BackgroundImageFix" result="effect1_dropShadow_198_8794"/>
<feBlend mode="normal" in="SourceGraphic" in2="effect1_dropShadow_198_8794" result="shape"/>
</filter>
<clipPath id="clip0_198_8794">
<rect width="188" height="115" fill="white"/>
</clipPath>
</defs>
</svg>
