<svg width="180" height="27" viewBox="0 0 180 27" fill="none" xmlns="http://www.w3.org/2000/svg">
<path d="M10.4053 12.1508H13.5185L15.257 18.7209L17.2988 12.1104H19.947L22.009 18.7411L23.788 12.1508H26.8405L23.4645 23.0672H20.695L18.6128 16.4163L16.4901 23.0672H13.7408L10.4053 12.1508Z" fill="#050E40"/>
<path d="M28.3026 8.229H31.3754V13.6872C31.5506 13.4581 31.7393 13.2425 31.9414 13.0403C32.1571 12.8247 32.3929 12.636 32.649 12.4743C32.905 12.3125 33.1881 12.1845 33.498 12.0902C33.808 11.9958 34.1584 11.9487 34.5492 11.9487C35.7217 11.9487 36.6247 12.3058 37.2581 13.0201C37.905 13.7344 38.2285 14.7182 38.2285 15.9715V22.9863H35.1557V16.9419C35.1557 16.2141 34.994 15.6683 34.6705 15.3044C34.3471 14.9271 33.8889 14.7384 33.2959 14.7384C32.7029 14.7384 32.2312 14.9271 31.8808 15.3044C31.5439 15.6683 31.3754 16.2141 31.3754 16.9419V22.9863H28.3026V8.229Z" fill="#050E40"/>
<path d="M45.8507 20.5807C46.2954 20.5807 46.6862 20.5066 47.0232 20.3583C47.3736 20.1966 47.6701 19.981 47.9127 19.7114C48.1552 19.4419 48.3372 19.1319 48.4585 18.7815C48.5932 18.4176 48.6606 18.0335 48.6606 17.6292V17.5888C48.6606 17.1845 48.5932 16.8071 48.4585 16.4567C48.3237 16.0928 48.1283 15.7761 47.8722 15.5066C47.6162 15.2236 47.3129 15.0012 46.9625 14.8395C46.6121 14.6778 46.228 14.5969 45.8102 14.5969C45.3655 14.5969 44.9679 14.6778 44.6175 14.8395C44.2806 14.9877 43.9908 15.1966 43.7483 15.4662C43.5057 15.7357 43.317 16.0524 43.1822 16.4163C43.0609 16.7667 43.0003 17.144 43.0003 17.5484V17.5888C43.0003 17.9931 43.0677 18.3772 43.2024 18.7411C43.3372 19.0915 43.5326 19.4082 43.7887 19.6912C44.0447 19.9607 44.3412 20.1764 44.6782 20.3381C45.0286 20.4998 45.4194 20.5807 45.8507 20.5807ZM45.8102 23.2289C44.9747 23.2289 44.1997 23.0874 43.4855 22.8044C42.7712 22.5079 42.1512 22.1103 41.6256 21.6117C41.1135 21.0996 40.7092 20.5066 40.4127 19.8327C40.1162 19.1454 39.968 18.4109 39.968 17.6292V17.5888C39.968 16.8071 40.1162 16.0794 40.4127 15.4055C40.7092 14.7182 41.1202 14.1185 41.6458 13.6063C42.1714 13.0942 42.7914 12.6899 43.5057 12.3934C44.22 12.0969 45.0016 11.9487 45.8507 11.9487C46.6862 11.9487 47.4612 12.0969 48.1755 12.3934C48.8897 12.6764 49.5029 13.074 50.0151 13.5861C50.5407 14.0848 50.9517 14.6778 51.2482 15.3651C51.5447 16.0389 51.693 16.7667 51.693 17.5484V17.5888C51.693 18.3705 51.5447 19.105 51.2482 19.7923C50.9517 20.4661 50.5407 21.0591 50.0151 21.5712C49.4895 22.0834 48.8695 22.4877 48.1552 22.7842C47.441 23.0807 46.6593 23.2289 45.8102 23.2289Z" fill="#050E40"/>
<path d="M53.6551 8.229H56.7279V22.9863H53.6551V8.229Z" fill="#050E40"/>
<path d="M66.3254 16.7195C66.231 16.0322 65.9884 15.4796 65.5976 15.0619C65.2068 14.6306 64.6879 14.415 64.041 14.415C63.3941 14.415 62.8685 14.6238 62.4642 15.0416C62.0734 15.4594 61.8173 16.0187 61.696 16.7195H66.3254ZM64.3442 23.2289C63.5356 23.2289 62.7809 23.0942 62.0801 22.8246C61.3928 22.5551 60.793 22.171 60.2809 21.6723C59.7823 21.1737 59.3914 20.5874 59.1084 19.9136C58.8254 19.2262 58.6839 18.4648 58.6839 17.6292V17.5888C58.6839 16.8206 58.8119 16.0928 59.068 15.4055C59.3375 14.7182 59.7081 14.1185 60.1798 13.6063C60.6515 13.0942 61.2108 12.6899 61.8577 12.3934C62.5181 12.0969 63.2459 11.9487 64.041 11.9487C64.944 11.9487 65.7256 12.1104 66.386 12.4338C67.0464 12.7573 67.5922 13.1953 68.0235 13.7478C68.4682 14.2869 68.7917 14.9136 68.9938 15.6279C69.2094 16.3287 69.3173 17.0632 69.3173 17.8314C69.3173 17.9527 69.3105 18.0807 69.297 18.2155C69.297 18.3502 69.2903 18.4918 69.2768 18.64H61.7364C61.8847 19.3408 62.1879 19.8731 62.6461 20.237C63.1178 20.5874 63.6973 20.7626 64.3847 20.7626C64.8968 20.7626 65.355 20.675 65.7593 20.4998C66.1636 20.3246 66.5814 20.0416 67.0127 19.6508L68.7714 21.2074C68.2593 21.8408 67.6394 22.3394 66.9116 22.7033C66.1838 23.0537 65.3281 23.2289 64.3442 23.2289Z" fill="#050E40"/>
<path d="M75.0035 23.1885C74.2353 23.1885 73.4469 23.0605 72.6383 22.8044C71.8431 22.5349 71.0817 22.1171 70.3539 21.551L71.6679 19.5295C72.2609 19.9607 72.8472 20.2842 73.4267 20.4998C74.0197 20.7155 74.5722 20.8233 75.0844 20.8233C75.5291 20.8233 75.8526 20.7492 76.0547 20.6009C76.2703 20.4527 76.3782 20.2572 76.3782 20.0147V19.9742C76.3782 19.8125 76.3175 19.671 76.1962 19.5497C76.0749 19.4284 75.9065 19.3273 75.6908 19.2465C75.4887 19.1521 75.2528 19.0645 74.9833 18.9837C74.7137 18.9028 74.4307 18.8152 74.1342 18.7209C73.7569 18.613 73.3728 18.485 72.982 18.3368C72.6046 18.175 72.2609 17.9729 71.951 17.7303C71.641 17.4742 71.3849 17.1643 71.1828 16.8004C70.9941 16.4365 70.8998 15.9918 70.8998 15.4662V15.4257C70.8998 14.8732 71.0008 14.388 71.203 13.9702C71.4186 13.5389 71.7016 13.1751 72.052 12.8786C72.4159 12.5821 72.8337 12.3597 73.3054 12.2115C73.7906 12.0632 74.3094 11.9891 74.862 11.9891C75.5493 11.9891 76.2434 12.1036 76.9442 12.3328C77.6585 12.5484 78.3121 12.8516 78.9051 13.2425L77.7326 15.3651C77.1935 15.0551 76.6679 14.8125 76.1558 14.6373C75.6437 14.4486 75.1922 14.3543 74.8013 14.3543C74.424 14.3543 74.141 14.4284 73.9523 14.5767C73.7636 14.7114 73.6693 14.8866 73.6693 15.1023V15.1427C73.6693 15.291 73.7299 15.4257 73.8512 15.547C73.9725 15.6548 74.1342 15.7627 74.3364 15.8705C74.5385 15.9648 74.7677 16.0591 75.0237 16.1535C75.2933 16.2478 75.5763 16.3422 75.8728 16.4365C76.2501 16.5578 76.6342 16.706 77.0251 16.8812C77.4159 17.043 77.7663 17.2451 78.0763 17.4877C78.3862 17.7303 78.6423 18.0268 78.8445 18.3772C79.0466 18.7276 79.1477 19.1521 79.1477 19.6508V19.6912C79.1477 20.2977 79.0399 20.8233 78.8242 21.268C78.6221 21.6993 78.3323 22.0564 77.955 22.3394C77.5776 22.6225 77.1329 22.8381 76.6207 22.9863C76.1221 23.1211 75.583 23.1885 75.0035 23.1885Z" fill="#050E40"/>
<path d="M84.9486 21.0659C85.6763 21.0659 86.2559 20.8907 86.6871 20.5403C87.1319 20.1899 87.3542 19.7316 87.3542 19.1656V18.6198C87.0847 18.4985 86.7815 18.4042 86.4445 18.3368C86.1211 18.2559 85.7707 18.2155 85.3933 18.2155C84.7329 18.2155 84.2141 18.3435 83.8367 18.5996C83.4594 18.8556 83.2707 19.2262 83.2707 19.7114V19.7519C83.2707 20.1696 83.4257 20.4931 83.7357 20.7222C84.0456 20.9513 84.4499 21.0659 84.9486 21.0659ZM84.0187 23.1885C83.5066 23.1885 83.0214 23.1211 82.5632 22.9863C82.1184 22.8381 81.7276 22.6225 81.3907 22.3394C81.0537 22.0564 80.7842 21.7128 80.582 21.3084C80.3934 20.8907 80.299 20.4122 80.299 19.8731V19.8327C80.299 19.2397 80.4068 18.7276 80.6225 18.2963C80.8381 17.8651 81.1346 17.5079 81.5119 17.2249C81.9028 16.9419 82.361 16.733 82.8866 16.5982C83.4257 16.45 84.0187 16.3759 84.6656 16.3759C85.2181 16.3759 85.6966 16.4163 86.1009 16.4972C86.5187 16.578 86.923 16.6858 87.3138 16.8206V16.6387C87.3138 15.9918 87.1184 15.4999 86.7276 15.1629C86.3367 14.826 85.7572 14.6575 84.989 14.6575C84.396 14.6575 83.8704 14.7114 83.4122 14.8193C82.9675 14.9136 82.4958 15.0551 81.9971 15.2438L81.2289 12.8988C81.8219 12.6427 82.4419 12.4338 83.0888 12.2721C83.7357 12.1104 84.5173 12.0295 85.4338 12.0295C86.2828 12.0295 87.0038 12.1373 87.5968 12.353C88.2033 12.5551 88.7019 12.8516 89.0928 13.2425C89.4971 13.6468 89.7936 14.1454 89.9823 14.7384C90.1709 15.3179 90.2653 15.9715 90.2653 16.6993V22.9863H87.2936V21.8138C86.9162 22.2316 86.4648 22.5685 85.9391 22.8246C85.4135 23.0672 84.7734 23.1885 84.0187 23.1885Z" fill="#050E40"/>
<path d="M92.6466 8.229H95.7194V22.9863H92.6466V8.229Z" fill="#050E40"/>
<path d="M105.317 16.7195C105.222 16.0322 104.98 15.4796 104.589 15.0619C104.198 14.6306 103.679 14.415 103.032 14.415C102.386 14.415 101.86 14.6238 101.456 15.0416C101.065 15.4594 100.809 16.0187 100.687 16.7195H105.317ZM103.336 23.2289C102.527 23.2289 101.772 23.0942 101.072 22.8246C100.384 22.5551 99.7845 22.171 99.2724 21.6723C98.7737 21.1737 98.3829 20.5874 98.0999 19.9136C97.8169 19.2262 97.6754 18.4648 97.6754 17.6292V17.5888C97.6754 16.8206 97.8034 16.0928 98.0595 15.4055C98.329 14.7182 98.6996 14.1185 99.1713 13.6063C99.643 13.0942 100.202 12.6899 100.849 12.3934C101.51 12.0969 102.237 11.9487 103.032 11.9487C103.935 11.9487 104.717 12.1104 105.377 12.4338C106.038 12.7573 106.584 13.1953 107.015 13.7478C107.46 14.2869 107.783 14.9136 107.985 15.6279C108.201 16.3287 108.309 17.0632 108.309 17.8314C108.309 17.9527 108.302 18.0807 108.289 18.2155C108.289 18.3502 108.282 18.4918 108.268 18.64H100.728C100.876 19.3408 101.179 19.8731 101.638 20.237C102.109 20.5874 102.689 20.7626 103.376 20.7626C103.888 20.7626 104.346 20.675 104.751 20.4998C105.155 20.3246 105.573 20.0416 106.004 19.6508L107.763 21.2074C107.251 21.8408 106.631 22.3394 105.903 22.7033C105.175 23.0537 104.32 23.2289 103.336 23.2289Z" fill="#050E40"/>
<path d="M120.39 21.1378L119.72 20.5462C119.299 21.0195 118.806 21.4205 118.241 21.7491C117.689 22.0647 117.058 22.2224 116.348 22.2224C115.769 22.2224 115.23 22.1107 114.731 21.8872C114.231 21.6637 113.791 21.3547 113.409 20.9603C113.041 20.5659 112.745 20.1058 112.522 19.5799C112.311 19.0409 112.206 18.469 112.206 17.8642V17.8248C112.206 17.22 112.311 16.6547 112.522 16.1288C112.732 15.603 113.015 15.1494 113.37 14.7681C113.738 14.3737 114.165 14.0648 114.652 13.8413C115.151 13.6178 115.69 13.506 116.269 13.506C117.018 13.506 117.656 13.6704 118.182 13.999C118.707 14.3277 119.187 14.7155 119.621 15.1625L120.311 14.4526C120.075 14.2028 119.818 13.9662 119.542 13.7427C119.279 13.5192 118.984 13.322 118.655 13.1511C118.326 12.9802 117.965 12.8487 117.57 12.7567C117.189 12.6515 116.762 12.5989 116.288 12.5989C115.565 12.5989 114.888 12.7435 114.257 13.0327C113.639 13.3088 113.1 13.6901 112.64 14.1765C112.18 14.663 111.818 15.2217 111.556 15.8528C111.293 16.4838 111.161 17.1543 111.161 17.8642V17.9037C111.161 18.6136 111.293 19.2841 111.556 19.9151C111.818 20.5462 112.18 21.0984 112.64 21.5716C113.1 22.0449 113.639 22.4262 114.257 22.7154C114.888 22.9915 115.565 23.1296 116.288 23.1296C117.209 23.1296 117.991 22.9455 118.635 22.5774C119.292 22.1961 119.878 21.7163 120.39 21.1378Z" fill="#050E40"/>
<path d="M122.769 18.2586H131.111C131.124 18.1798 131.131 18.1206 131.131 18.0811C131.131 18.0286 131.131 17.9694 131.131 17.9037V17.8642C131.131 17.1149 131.019 16.4246 130.795 15.7936C130.585 15.1494 130.276 14.5907 129.869 14.1174C129.474 13.6441 128.994 13.276 128.429 13.013C127.864 12.7369 127.226 12.5989 126.516 12.5989C125.833 12.5989 125.201 12.7369 124.623 13.013C124.045 13.2891 123.538 13.6638 123.105 14.1371C122.684 14.6104 122.349 15.1691 122.099 15.8133C121.862 16.4444 121.744 17.1214 121.744 17.8445V17.8839C121.744 18.6728 121.875 19.3893 122.138 20.0335C122.401 20.6777 122.756 21.2298 123.203 21.69C123.663 22.1501 124.189 22.5051 124.781 22.7549C125.386 23.0047 126.017 23.1296 126.674 23.1296C127.634 23.1296 128.436 22.9521 129.08 22.5971C129.737 22.2421 130.322 21.7886 130.835 21.2364L130.164 20.6448C129.744 21.0918 129.257 21.4665 128.705 21.7688C128.166 22.0712 127.502 22.2224 126.713 22.2224C126.214 22.2224 125.734 22.137 125.274 21.9661C124.827 21.782 124.426 21.5191 124.071 21.1772C123.716 20.8354 123.42 20.4213 123.183 19.9349C122.947 19.4484 122.809 18.8897 122.769 18.2586ZM122.769 17.3909C122.809 16.8388 122.934 16.326 123.144 15.8528C123.354 15.3663 123.617 14.9522 123.933 14.6104C124.261 14.2554 124.643 13.9793 125.077 13.7821C125.51 13.5849 125.977 13.4863 126.477 13.4863C127.055 13.4863 127.561 13.5981 127.995 13.8216C128.429 14.0319 128.791 14.3211 129.08 14.6893C129.382 15.0442 129.612 15.4583 129.77 15.9316C129.941 16.3918 130.046 16.8782 130.086 17.3909H122.769Z" fill="#050E40"/>
<path d="M142.174 22.8929V16.7402C142.174 16.1354 142.082 15.5832 141.898 15.0837C141.727 14.5709 141.464 14.1305 141.109 13.7624C140.767 13.3943 140.346 13.1116 139.847 12.9144C139.347 12.7041 138.782 12.5989 138.151 12.5989C137.231 12.5989 136.481 12.8027 135.903 13.2102C135.324 13.6178 134.864 14.1174 134.522 14.709V12.8355H133.556V22.8929H134.522V17.0754C134.522 16.5495 134.608 16.0697 134.779 15.6358C134.963 15.1888 135.213 14.8076 135.528 14.492C135.844 14.1765 136.212 13.9333 136.632 13.7624C137.053 13.5783 137.513 13.4863 138.013 13.4863C139.038 13.4863 139.827 13.8018 140.379 14.4329C140.931 15.0508 141.208 15.879 141.208 16.9176V22.8929H142.174Z" fill="#050E40"/>
<path d="M150.245 22.7154V21.8083C149.956 21.9398 149.699 22.0318 149.476 22.0844C149.252 22.137 149.016 22.1633 148.766 22.1633C148.174 22.1633 147.688 22.0186 147.307 21.7294C146.939 21.4402 146.754 20.934 146.754 20.2109V13.723H150.284V12.8355H146.754V9.62113H145.788V12.8355H144.329V13.723H145.788V20.3095C145.788 20.7828 145.86 21.197 146.005 21.5519C146.15 21.8937 146.347 22.183 146.597 22.4196C146.86 22.6431 147.162 22.8075 147.504 22.9126C147.846 23.0178 148.214 23.0704 148.608 23.0704C148.924 23.0704 149.206 23.0375 149.456 22.9718C149.719 22.9192 149.982 22.8337 150.245 22.7154Z" fill="#050E40"/>
<path d="M158.18 13.7427V12.6778C157.681 12.6646 157.201 12.7304 156.741 12.875C156.294 13.0065 155.88 13.2102 155.498 13.4863C155.117 13.7493 154.775 14.0713 154.473 14.4526C154.17 14.8339 153.921 15.248 153.723 15.695V12.8355H152.757V22.8929H153.723V18.7714C153.723 17.9563 153.842 17.2397 154.078 16.6218C154.315 15.9908 154.631 15.4649 155.025 15.0442C155.433 14.6104 155.899 14.2883 156.425 14.0779C156.951 13.8544 157.503 13.7427 158.082 13.7427H158.18Z" fill="#050E40"/>
<path d="M167.607 22.8929V16.6218C167.607 15.3072 167.232 14.3211 166.482 13.6638C165.733 13.0065 164.708 12.6778 163.406 12.6778C162.709 12.6778 162.078 12.7567 161.513 12.9144C160.948 13.0722 160.389 13.2825 159.837 13.5455L160.192 14.3934C160.652 14.1568 161.138 13.9662 161.651 13.8216C162.164 13.6638 162.729 13.5849 163.347 13.5849C164.386 13.5849 165.194 13.8413 165.773 14.354C166.364 14.8667 166.66 15.6358 166.66 16.6613V17.0951C166.174 16.9637 165.674 16.8585 165.161 16.7796C164.649 16.7007 164.037 16.6613 163.327 16.6613C162.67 16.6613 162.072 16.7336 161.533 16.8782C160.994 17.0228 160.534 17.2332 160.152 17.5093C159.771 17.7853 159.469 18.1272 159.245 18.5347C159.035 18.9423 158.93 19.409 158.93 19.9349V19.9743C158.93 20.5002 159.041 20.9603 159.265 21.3547C159.502 21.7491 159.804 22.0778 160.172 22.3407C160.54 22.6037 160.954 22.8009 161.414 22.9323C161.875 23.0638 162.341 23.1296 162.815 23.1296C163.288 23.1296 163.722 23.0704 164.116 22.9521C164.524 22.8469 164.885 22.7089 165.201 22.5379C165.516 22.3539 165.792 22.1501 166.029 21.9266C166.279 21.69 166.489 21.4533 166.66 21.2167V22.8929H167.607ZM166.68 19.1263C166.68 19.5865 166.575 20.0072 166.364 20.3884C166.167 20.7697 165.891 21.0984 165.536 21.3744C165.194 21.6374 164.793 21.8477 164.333 22.0055C163.873 22.1501 163.386 22.2224 162.874 22.2224C162.492 22.2224 162.124 22.1698 161.769 22.0647C161.414 21.9595 161.099 21.8083 160.823 21.6111C160.56 21.4139 160.349 21.1772 160.192 20.9012C160.034 20.6119 159.955 20.2833 159.955 19.9151V19.8757C159.955 19.1658 160.238 18.6005 160.803 18.1798C161.382 17.7459 162.203 17.529 163.268 17.529C163.991 17.529 164.635 17.5816 165.201 17.6867C165.766 17.7788 166.259 17.8774 166.68 17.9825V19.1263Z" fill="#050E40"/>
<path d="M171.792 22.8929V8.49707H170.825V22.8929H171.792Z" fill="#050E40"/>
<path fillRule="evenodd" clip-rule="evenodd" d="M53.4425 6.25107C48.1562 3.79063 40.8567 2.26909 32.7946 2.26909C16.6585 2.26909 3.57758 8.36417 3.57758 15.8828C3.57758 20.0269 7.55137 23.7385 13.8203 26.2354C5.52381 23.7337 0 19.2704 0 14.181C0 6.34905 13.0809 0 29.217 0C39.301 0 48.1918 2.47957 53.4425 6.25107Z" fill="#EDAB2F"/>
</svg>
